<svg width="20" height="14" viewBox="0 0 20 14" fill="none" xmlns="http://www.w3.org/2000/svg">
<path d="M19.6551 14H0.344842C0.154413 14 0 13.835 0 13.6316V0.368437C0 0.164979 0.154413 0 0.344842 0H19.6551C19.8455 0 20 0.164979 20 0.368437V13.6316C19.9999 13.835 19.8455 14 19.6551 14Z" fill="#41479B"/>
<path d="M19.9999 0.368437C19.9999 0.164979 19.8455 0 19.6551 0H18.1123L11.7241 4.47179V0H8.27579V4.47179L1.88757 0H0.344842C0.154413 0 0 0.164979 0 0.368437V1.32129L5.4808 5.15787H0V8.84208H5.4808L0 12.6787V13.6316C0 13.835 0.154413 14 0.344842 14H1.88761L8.27587 9.52821V14H11.7241V9.52821L18.1124 14H19.6552C19.8456 14 20 13.835 20 13.6316V12.6787L14.5192 8.84212H19.9999V5.15792H14.5191L19.9999 1.32129V0.368437Z" fill="#F5F5F5"/>
<path d="M19.9999 5.89475H11.0344V0H8.96547V5.89475H0V8.10525H8.96547V14H11.0344V8.10525H19.9999V5.89475Z" fill="#FF4B55"/>
<path d="M6.99013 8.84204L0.00976562 13.6832C0.0341796 13.8611 0.171484 14 0.344803 14H0.819763L8.25684 8.84208H6.99013V8.84204Z" fill="#FF4B55"/>
<path d="M13.5308 8.84204H12.264L19.6903 13.9923C19.8634 13.9726 20 13.8216 20 13.6315V13.3286L13.5308 8.84204Z" fill="#FF4B55"/>
<path d="M0 0.775161L6.31947 5.15793H7.58618L0.200898 0.0359497C0.0829294 0.094504 0 0.220335 0 0.368453V0.775161Z" fill="#FF4B55"/>
<path d="M12.9909 5.15793L19.988 0.305102C19.959 0.133071 19.8246 6.10352e-05 19.6552 6.10352e-05H19.1611L11.7242 5.15793H12.9909Z" fill="#FF4B55"/>
</svg>
